<svg id="Layer_1" enable-background="new 0 0 510 510" height="512" viewBox="0 0 510 510" width="512" xmlns="http://www.w3.org/2000/svg"><g id="XMLID_3287_"><path id="XMLID_3322_" d="m325 225-40 225h-165v-450h165z" fill="#9896f9"/><path id="XMLID_3319_" d="m285 0h165v450h-165z" fill="#6662f7"/><path id="XMLID_3316_" d="m150 420h135l40-195-40-195h-135z" fill="#edf5ff"/><path id="XMLID_3313_" d="m285 30h135v390h-135z" fill="#d5e8fe"/><g id="XMLID_3300_"><path id="XMLID_3310_" d="m255 285-30 225h-165v-450h165z" fill="#ffa5a7"/><path id="XMLID_3307_" d="m225 60h165v450h-165z" fill="#fa686c"/><path id="XMLID_3304_" d="m90 480h135l30-225-30-165h-135z" fill="#edf5ff"/><path id="XMLID_3301_" d="m225 90h135v390h-135z" fill="#d5e8fe"/></g><path id="XMLID_3297_" d="m300 420h30v30h-30z" fill="#fa686c"/><path id="XMLID_3294_" d="m120 120h30v30h-30z" fill="#ffa5a7"/><path id="XMLID_2257_" d="m245 295-20-39.061-20.145-20.145c-12.055-12.055-31.6-12.055-43.654 0-12.055 12.055-12.055 31.6 0 43.654 7.612 7.612 56.246 56.247 63.799 63.799z" fill="#ffa5a7"/><path id="XMLID_3288_" d="m288.799 235.794c-12.055-12.055-31.6-12.055-43.654 0l-20.145 20.145v87.308c7.534-7.534 56.19-56.19 63.799-63.799 12.054-12.054 12.054-31.599 0-43.654z" fill="#fa686c"/></g></svg>